<?xml version="1.0" standalone="no"?>
<!DOCTYPE svg PUBLIC "-//W3C//DTD SVG 20010904//EN"
 "http://www.w3.org/TR/2001/REC-SVG-20010904/DTD/svg10.dtd">
<svg version="1.0" xmlns="http://www.w3.org/2000/svg"
 width="300.000000pt" height="300.000000pt" viewBox="0 0 300.000000 300.000000"
 preserveAspectRatio="xMidYMid meet">
<metadata>
Created by potrace 1.14, written by Peter Selinger 2001-2017
</metadata>
<g transform="translate(0.000000,300.000000) scale(0.100000,-0.100000)"
fill="#000000" stroke="none">
<path d="M1578 2942 c-16 -2 -28 -7 -28 -12 0 -4 -11 -7 -25 -5 -14 1 -25 -2
-25 -7 0 -5 -16 -6 -37 -2 -21 4 -45 8 -53 9 -9 0 -21 4 -28 9 -6 4 -12 3 -12
-1 0 -5 -21 -9 -47 -8 -26 0 -52 -6 -60 -13 -7 -7 -13 -10 -13 -5 0 4 -7 -1
-15 -11 -12 -16 -15 -17 -20 -4 -7 17 -21 18 -44 4 -8 -5 -31 -11 -50 -13 -20
-2 -42 -4 -48 -5 -7 -1 -13 -5 -13 -9 0 -4 -8 -6 -17 -5 -10 2 -25 -1 -33 -5
-18 -9 -43 -17 -50 -15 -3 0 -18 -7 -33 -17 -15 -9 -27 -14 -27 -10 0 5 -4 4
-8 -2 -4 -5 -37 -25 -73 -43 -36 -18 -89 -54 -116 -80 -81 -76 -124 -112 -134
-112 -5 0 -9 -4 -9 -9 0 -5 -9 -13 -20 -16 -25 -8 -80 -65 -80 -83 0 -7 -4
-10 -10 -7 -5 3 -10 1 -10 -4 0 -14 -117 -178 -129 -183 -5 -1 -11 -10 -13
-18 -2 -8 -11 -22 -20 -31 -10 -9 -15 -19 -11 -22 3 -4 -2 -16 -11 -26 -10
-11 -15 -24 -12 -30 3 -5 2 -11 -3 -13 -5 -1 -11 -12 -13 -23 -1 -11 -6 -22
-10 -25 -4 -3 -9 -15 -11 -25 -1 -11 -6 -26 -10 -32 -5 -7 -6 -13 -3 -13 3 0
-2 -16 -10 -35 -8 -19 -12 -35 -9 -35 3 0 -1 -13 -10 -30 -8 -16 -15 -32 -15
-35 -1 -22 -14 -65 -21 -65 -5 0 -9 -9 -9 -20 0 -11 -4 -20 -10 -20 -5 0 -7
-7 -4 -15 4 -8 -1 -17 -9 -21 -9 -3 -14 -14 -12 -25 2 -10 -1 -19 -6 -19 -6 0
-5 -8 2 -21 6 -12 7 -19 2 -16 -5 3 -9 -12 -10 -34 0 -23 3 -36 9 -33 6 4 5
-4 -2 -16 -10 -18 -9 -24 1 -31 11 -7 11 -9 1 -9 -8 0 -10 -5 -6 -12 4 -7 9
-46 10 -88 1 -41 2 -92 3 -113 0 -21 4 -36 9 -34 4 3 6 -15 5 -39 0 -24 3 -44
9 -44 5 0 7 -4 4 -8 -2 -4 4 -28 15 -52 12 -25 22 -54 24 -65 6 -38 17 -65 26
-65 5 0 9 -11 9 -25 0 -29 34 -92 63 -117 11 -10 17 -21 14 -25 -4 -3 4 -21
18 -39 14 -18 25 -37 25 -42 0 -6 9 -8 20 -5 20 5 20 6 3 25 -34 38 -18 77 17
42 25 -24 48 -44 53 -44 2 0 4 7 4 15 0 8 -4 15 -9 15 -4 0 -8 11 -8 24 0 14
-5 28 -10 31 -6 4 -10 16 -8 28 2 13 -2 21 -9 20 -6 -1 -10 8 -8 22 1 14 -2
25 -7 25 -5 0 -6 4 -3 10 3 5 2 10 -3 10 -5 0 -9 10 -9 23 -1 48 -4 57 -18 57
-8 0 -22 17 -31 38 -20 47 -28 85 -15 78 5 -4 13 -1 17 5 7 12 -35 99 -48 99
-5 0 -8 11 -8 25 0 14 5 25 10 25 13 0 13 37 1 45 -6 3 -7 15 -4 28 5 22 10
66 17 147 2 25 4 45 5 45 1 0 3 25 5 55 2 30 7 66 11 80 5 14 9 39 11 55 1 17
3 30 4 30 1 0 3 7 5 15 12 55 12 69 2 74 -9 3 -8 7 2 14 7 5 15 20 16 33 2 13
12 47 23 75 12 29 18 55 15 58 -4 3 -1 6 5 6 7 0 12 9 12 20 0 22 28 39 39 24
14 -20 29 -11 41 26 7 22 17 40 22 40 4 0 8 9 8 20 0 11 5 20 10 20 6 0 10 5
10 12 0 6 8 20 17 31 13 15 14 18 3 12 -8 -5 -4 3 10 18 14 15 31 27 38 27 21
0 73 40 67 51 -4 5 -2 9 4 9 6 0 8 7 5 15 -4 8 -1 15 6 15 6 0 8 5 5 10 -3 6
-1 10 5 10 6 0 13 -6 16 -14 4 -10 23 3 66 45 56 56 110 93 124 87 3 -2 10 5
15 15 6 9 15 15 21 11 12 -7 108 35 108 48 0 4 7 8 15 8 9 0 18 6 21 14 7 17
35 27 93 32 25 3 49 8 55 12 6 4 27 7 46 7 37 0 77 26 65 44 -4 7 4 11 19 11
19 0 24 -4 19 -16 -5 -14 -1 -16 20 -12 14 3 28 0 31 -6 3 -7 5 -6 5 2 1 8 6
10 13 6 7 -4 50 -9 96 -10 46 -2 89 -7 95 -11 7 -5 38 -9 70 -8 31 1 57 -2 57
-5 0 -4 17 -6 38 -5 20 1 42 -1 47 -4 6 -3 19 -6 30 -7 46 -3 87 -18 100 -36
7 -11 18 -17 24 -13 6 3 11 2 11 -3 0 -9 39 -27 63 -30 4 -1 14 -7 22 -14 30
-27 44 -38 50 -38 2 0 16 -9 29 -21 13 -12 27 -20 31 -19 4 1 12 -5 18 -13 21
-25 47 -29 47 -7 0 28 22 25 51 -7 13 -14 18 -23 11 -19 -11 7 -11 4 0 -13 7
-12 16 -21 20 -21 5 0 8 -7 8 -15 0 -8 5 -15 10 -15 6 0 10 -4 10 -10 0 -9 19
-36 48 -66 7 -8 10 -14 5 -14 -4 0 0 -5 10 -11 9 -5 17 -16 17 -23 0 -8 7 -17
16 -20 9 -4 14 -9 11 -12 -3 -3 4 -16 16 -29 30 -30 57 -64 57 -70 0 -3 15
-19 33 -36 17 -17 31 -37 29 -45 -3 -13 10 -19 33 -14 5 1 7 -1 3 -5 -4 -4 -1
-14 7 -22 16 -15 21 -63 7 -63 -4 0 -16 16 -26 35 -18 34 -44 39 -31 6 4 -9 8
-22 9 -29 1 -8 9 -18 17 -23 8 -5 10 -9 6 -9 -4 0 -2 -10 5 -22 7 -13 13 -27
13 -33 9 -67 33 -94 53 -59 8 15 10 15 15 0 4 -9 2 -16 -3 -16 -5 0 -7 -10 -5
-22 3 -12 -1 -26 -8 -30 -7 -4 -7 -8 -2 -8 7 0 9 -15 7 -34 -4 -35 6 -41 34
-23 8 5 12 -12 12 -58 0 -36 -4 -68 -9 -71 -5 -3 -9 -2 -8 3 4 25 -1 34 -14
22 -14 -14 -15 -21 -20 -134 -1 -44 -6 -86 -11 -94 -7 -10 -6 -12 4 -6 10 6
11 4 4 -6 -4 -8 -9 -18 -10 -24 -1 -5 -5 -28 -8 -50 -9 -55 -56 -207 -70 -224
-6 -8 -10 -17 -9 -20 1 -3 -7 -26 -18 -51 -33 -72 -47 -140 -30 -140 17 0 13
-18 -11 -45 -21 -24 -24 -25 -35 -9 -11 15 -14 15 -27 1 -8 -8 -13 -17 -10
-20 3 -3 -3 -12 -15 -19 -12 -7 -21 -16 -21 -20 0 -3 -16 -23 -35 -44 -37 -39
-41 -49 -25 -59 7 -4 5 -14 -5 -28 -18 -26 -124 -137 -131 -137 -3 0 -17 -11
-32 -25 -15 -14 -30 -25 -35 -25 -4 0 -17 -9 -29 -20 -12 -10 -25 -17 -29 -14
-4 2 -10 0 -14 -6 -7 -11 -96 -54 -107 -52 -5 1 -8 -2 -8 -8 0 -5 -9 -10 -20
-10 -11 0 -20 -5 -20 -11 0 -5 -4 -7 -10 -4 -5 3 -10 2 -10 -3 0 -5 -13 -15
-30 -22 -16 -7 -30 -15 -30 -19 0 -3 -16 -7 -36 -7 -20 -1 -39 -6 -43 -11 -3
-5 -23 -9 -43 -8 -21 1 -38 -3 -38 -7 0 -5 -4 -7 -9 -3 -5 3 -12 2 -15 -3 -2
-4 -48 -7 -100 -7 -53 0 -96 -2 -96 -5 0 -3 -34 -3 -76 0 -42 3 -106 5 -142 5
-37 0 -72 5 -79 11 -7 7 -26 10 -43 9 -16 -1 -30 1 -30 6 0 5 -3 8 -7 7 -12
-4 -107 24 -118 33 -5 5 -19 9 -32 9 -13 0 -23 4 -23 8 0 4 -8 8 -17 9 -10 0
-33 3 -50 6 -80 13 -8 -46 89 -74 27 -7 48 -18 48 -23 0 -5 3 -7 6 -4 3 4 25
-2 49 -13 24 -10 62 -20 84 -21 23 -1 44 -4 46 -8 2 -4 28 -6 57 -6 29 1 67
-1 83 -5 17 -3 39 -3 50 1 11 4 28 3 39 -2 14 -8 17 -7 11 3 -6 8 -4 10 6 3
20 -12 89 -12 89 1 0 7 3 7 8 0 7 -11 62 -15 62 -5 0 3 27 5 60 4 33 -1 60 2
60 6 0 5 8 7 18 5 9 -1 22 0 27 4 13 7 35 13 63 15 12 0 22 3 22 6 0 7 92 35
103 32 4 -1 7 3 7 9 0 5 4 8 9 5 5 -3 14 1 21 8 6 8 20 13 30 11 10 -2 21 3
24 11 3 8 12 14 20 14 14 0 76 29 86 41 3 3 19 12 37 19 17 8 29 18 26 23 -3
5 0 8 7 5 8 -2 21 3 31 11 9 9 29 26 45 38 57 44 93 80 87 87 -3 3 0 6 8 6 8
0 21 9 29 19 7 11 17 18 20 16 4 -2 21 9 39 25 18 17 30 30 27 30 -3 0 2 9 12
19 30 34 42 50 42 57 -1 3 8 14 20 24 12 10 22 22 22 27 0 4 13 27 29 50 16
23 29 46 29 52 0 6 3 11 8 11 4 0 23 28 41 62 19 35 43 75 53 90 11 16 17 28
14 28 -4 0 4 17 17 37 13 21 22 43 20 50 -2 6 1 14 6 18 6 3 11 22 11 40 0 42
21 128 34 136 5 4 6 11 2 17 -3 5 1 15 9 22 8 7 13 16 10 20 -3 5 0 12 6 16
31 19 41 -77 10 -98 -11 -8 -17 -18 -13 -23 11 -15 26 -15 40 1 7 8 10 14 7
14 -3 0 2 16 10 36 8 20 13 40 10 44 -3 5 0 12 6 16 8 4 7 9 -2 15 -8 5 -9 9
-4 9 12 0 16 22 18 98 0 28 4 52 7 52 4 0 8 24 9 53 1 41 -6 67 -29 115 -16
34 -30 67 -30 73 0 5 -4 8 -8 5 -4 -2 -8 4 -9 15 -2 22 -23 53 -38 56 -6 1
-10 -13 -9 -31 1 -19 -2 -40 -7 -47 -6 -10 -9 -8 -9 9 0 12 -3 22 -7 22 -5 0
-9 15 -10 33 -1 17 -6 41 -11 52 -40 88 -43 98 -32 105 11 7 3 40 -12 51 -5 3
-10 16 -11 28 -1 14 -13 29 -29 37 -17 9 -37 34 -50 62 -12 26 -26 50 -31 53
-5 3 -8 8 -7 10 4 9 -24 59 -32 59 -5 0 -6 5 -3 10 3 6 0 12 -7 15 -7 3 -14
16 -14 30 -1 18 3 24 20 23 44 -2 49 1 36 17 -7 8 -18 15 -24 15 -6 0 -23 11
-38 24 -14 14 -29 22 -32 19 -3 -4 -6 0 -6 8 0 8 -9 20 -20 27 -11 7 -20 20
-20 30 -1 23 -34 62 -54 62 -8 0 -20 9 -25 19 -6 10 -25 24 -42 30 -17 6 -57
34 -90 62 -32 28 -59 48 -59 43 0 -4 -8 0 -17 8 -32 28 -273 145 -273 132 0
-2 -8 0 -18 5 -11 6 -31 12 -46 15 -14 3 -34 7 -44 10 -37 11 -99 19 -152 20
-30 1 -57 3 -60 6 -3 3 -17 4 -32 2z"/>
<path d="M1307 2599 c-14 -4 -28 -4 -31 -1 -3 3 -6 1 -6 -5 0 -6 -11 -9 -24
-8 -13 2 -35 -2 -48 -9 -13 -7 -29 -11 -35 -9 -6 2 -14 -1 -18 -6 -3 -6 -12
-11 -19 -11 -8 0 -29 -6 -47 -14 -19 -8 -37 -13 -40 -13 -4 1 -17 -7 -29 -18
-12 -11 -24 -19 -26 -18 -8 3 -44 -10 -44 -16 0 -3 -15 -13 -32 -20 -18 -8
-43 -25 -56 -38 -12 -13 -27 -23 -32 -23 -31 0 -270 -274 -270 -309 0 -5 -4
-11 -8 -13 -13 -5 -97 -185 -94 -200 1 -5 -2 -8 -6 -8 -4 0 -9 -8 -10 -17 -7
-59 -9 -70 -17 -83 -5 -8 -10 -30 -11 -50 -1 -19 -3 -35 -4 -35 -5 0 -11 -72
-12 -155 -1 -111 3 -180 12 -180 3 0 6 -18 5 -40 -1 -23 4 -40 10 -40 6 0 10
-12 9 -27 -1 -28 20 -87 38 -110 13 -16 28 -2 56 50 10 20 22 34 26 30 3 -3 6
0 6 8 0 14 65 125 87 147 7 7 13 16 13 20 0 4 15 17 33 29 32 22 78 24 85 4 2
-6 9 -8 17 -5 7 3 16 -3 20 -15 3 -12 12 -21 18 -21 16 0 15 -58 -2 -87 -6
-13 -8 -23 -4 -23 4 0 3 -4 -4 -8 -6 -4 -13 -16 -15 -27 -1 -11 -6 -22 -9 -25
-4 -3 -17 -25 -29 -50 -12 -25 -31 -57 -42 -72 -11 -16 -16 -28 -13 -28 4 0
-3 -12 -14 -26 -12 -15 -21 -33 -21 -40 0 -8 -3 -14 -8 -14 -8 0 -42 -73 -42
-90 0 -6 -4 -10 -9 -10 -19 0 -3 -33 39 -81 24 -27 49 -49 57 -49 8 0 11 5 8
10 -3 6 -1 10 4 10 6 0 11 6 11 14 0 8 4 16 8 18 7 3 62 92 85 138 4 8 19 33
32 55 14 22 32 55 40 73 9 17 20 32 27 32 6 0 9 3 5 6 -7 8 110 203 139 230
13 12 21 24 18 26 -2 3 10 16 27 29 33 25 79 36 79 19 0 -5 6 -10 13 -10 7 0
23 -9 36 -21 17 -16 21 -30 20 -65 -2 -24 -6 -44 -11 -44 -4 0 -8 -9 -8 -21 0
-13 -4 -18 -12 -13 -6 4 -8 3 -4 -4 6 -9 -11 -59 -24 -72 -3 -3 -12 -18 -20
-35 -8 -16 -23 -42 -33 -58 -10 -15 -15 -27 -10 -27 4 0 3 -4 -3 -8 -6 -4 -24
-29 -38 -57 -15 -27 -38 -68 -52 -90 -13 -22 -29 -49 -35 -60 -5 -11 -23 -42
-39 -70 -23 -40 -53 -96 -78 -146 -1 -3 8 -17 21 -31 29 -31 81 -45 100 -26
27 27 56 76 50 82 -3 3 -2 6 4 6 6 0 16 14 23 30 7 16 16 30 21 30 5 0 9 7 9
15 0 8 5 15 12 15 6 0 9 3 6 6 -9 8 36 72 64 92 13 9 30 16 38 16 8 -1 23 -2
32 -3 22 -1 78 -51 81 -71 2 -8 6 -20 10 -27 4 -6 -14 -51 -40 -100 -26 -48
-52 -98 -57 -110 -6 -13 -14 -23 -18 -23 -4 0 -5 -6 -2 -14 3 -8 1 -17 -5 -20
-14 -9 -2 -36 15 -36 8 0 14 -4 14 -8 0 -5 24 -10 54 -11 54 -1 55 -1 85 42
17 25 27 47 24 51 -4 3 -2 6 4 6 6 0 18 16 27 35 9 19 22 35 28 35 6 0 8 3 5
6 -4 4 3 20 14 35 11 16 17 29 12 29 -4 0 0 5 10 11 9 5 17 15 17 22 0 7 15
28 33 48 27 30 38 35 74 35 25 -1 51 -8 63 -18 11 -10 20 -15 20 -12 0 3 7 -2
15 -10 18 -18 28 -73 14 -81 -5 -4 -9 -13 -9 -21 0 -8 -5 -20 -10 -27 -23 -27
-58 -86 -54 -90 3 -2 -2 -10 -11 -17 -8 -7 -15 -21 -15 -30 0 -10 -6 -20 -12
-22 -7 -3 2 -10 20 -16 19 -6 34 -7 37 -1 4 5 19 9 35 9 17 0 53 9 81 20 29
10 56 17 61 14 4 -3 8 -1 8 4 0 8 22 19 51 26 3 0 34 18 69 38 35 21 67 38 71
38 5 0 9 4 9 9 0 5 9 12 19 16 10 3 31 17 45 32 14 14 26 22 26 17 0 -5 4 -4
8 1 4 6 30 31 59 57 29 27 50 48 48 48 -2 0 11 15 28 34 46 48 67 75 67 85 0
5 3 11 8 13 22 10 139 235 132 256 0 1 7 16 15 32 9 17 13 30 10 30 -3 0 -1 8
4 19 6 10 11 35 13 55 1 20 5 36 9 36 4 0 6 20 5 45 -1 25 2 45 6 45 5 0 4 9
-2 20 -9 16 -8 22 5 26 8 3 15 10 15 16 0 5 -4 6 -10 3 -5 -3 -10 -1 -10 4 0
6 6 11 13 11 7 0 8 3 2 8 -5 4 -10 27 -9 52 0 25 -2 49 -4 53 -2 5 -6 30 -7
55 -3 49 -7 70 -16 87 -3 6 -4 20 -3 33 0 12 -3 22 -8 22 -5 0 -8 8 -6 18 1 9
0 22 -3 27 -9 15 -29 79 -28 89 0 5 -5 12 -13 17 -7 5 -13 12 -14 16 -2 26
-17 63 -25 63 -5 0 -9 7 -9 15 0 8 -5 15 -12 15 -6 0 -8 3 -5 7 7 6 -59 105
-75 111 -4 2 -8 9 -8 16 0 6 -8 19 -17 28 -10 9 -54 53 -98 97 -44 45 -84 81
-89 81 -5 0 -17 10 -27 22 -11 11 -19 18 -19 14 0 -4 -9 1 -20 11 -23 22 -160
93 -177 93 -7 0 -13 5 -13 11 0 6 -6 9 -14 6 -8 -3 -22 1 -33 8 -10 8 -28 15
-41 15 -15 0 -21 4 -16 12 4 6 3 8 -3 5 -6 -4 -35 -2 -64 4 -61 12 -393 18
-432 8z"/>
<path d="M2673 2343 c2 -10 6 -25 8 -33 2 -8 8 -18 13 -21 4 -4 10 -22 11 -40
2 -18 8 -35 14 -37 6 -2 11 -10 11 -18 0 -8 7 -17 15 -20 8 -4 13 -9 10 -13
-2 -4 5 -14 16 -21 10 -8 19 -20 19 -26 0 -7 6 -14 13 -17 10 -4 12 3 9 24 -2
16 -8 29 -13 29 -5 0 -8 4 -6 9 3 12 -36 101 -45 101 -5 0 -8 6 -8 13 0 7 -11
24 -25 39 -14 15 -25 32 -25 38 0 5 -5 10 -11 10 -6 0 -9 -8 -6 -17z"/>
<path d="M2827 2033 c3 -7 8 -13 12 -13 4 0 8 -6 8 -12 1 -23 11 -67 19 -79 4
-8 9 -7 15 2 5 8 2 20 -7 30 -8 9 -14 20 -13 25 5 19 -13 61 -26 61 -7 0 -11
-6 -8 -14z"/>
<path d="M2884 1144 c3 -8 -1 -26 -10 -39 -9 -13 -13 -29 -10 -34 4 -5 -2 -14
-11 -20 -10 -5 -15 -13 -10 -17 4 -4 -11 -24 -33 -46 -23 -21 -38 -38 -34 -38
5 0 -1 -6 -12 -14 -10 -8 -16 -18 -12 -22 4 -4 2 -14 -4 -22 -15 -17 -20 -72
-7 -72 22 0 50 39 52 71 1 19 10 41 19 50 10 9 18 21 18 28 0 6 3 11 8 11 10
0 46 91 45 112 -1 10 2 18 8 18 5 0 9 11 9 25 0 14 -5 25 -11 25 -6 0 -8 -7
-5 -16z"/>
<path d="M466 761 c-4 -6 -3 -11 3 -11 6 0 13 -11 17 -25 3 -14 14 -31 23 -38
9 -6 18 -23 18 -36 1 -13 7 -27 13 -31 7 -4 11 -10 10 -14 0 -4 6 -14 15 -22
8 -9 15 -13 15 -9 0 4 7 -1 16 -10 25 -24 41 -3 20 27 -9 12 -19 21 -22 19 -9
-6 -44 22 -44 34 0 17 -24 65 -32 65 -5 0 -8 8 -8 17 0 9 -3 13 -7 9 -4 -3
-12 3 -19 15 -7 14 -14 18 -18 10z"/>
<path d="M2221 549 c-23 -22 -39 -45 -35 -51 4 -7 10 -5 16 6 5 9 13 14 19 11
5 -4 9 1 9 10 0 8 8 19 18 22 29 11 44 30 28 36 -7 3 -32 -13 -55 -34z"/>
<path d="M660 510 c0 -14 53 -60 70 -60 9 0 0 14 -24 35 -41 38 -46 40 -46 25z"/>
</g>
</svg>
